#!OML:ASF I:\Random Stuff\random\construction\7_22_03\Session 2\subj1.ASF
:FULLY-SPECIFIED
:DEGREES
543
root -11.2032 17.8573 -2.69773 -167.322 -61.5962 -183.697
lowerback 6.45438 -0.10491 3.61454
upperback -0.542156 0.18762 2.21874
thorax -4.1812 0.0161674 0.25069
lowerneck -26.1419 1.41346 0.378089
upperneck 39.9358 -0.0459284 0.6547
head 20.0825 -0.375205 0.0607313
rclavicle -4.01545e-014 -3.18055e-015
rhumerus -19.5911 19.8363 -69.8019
rradius 77.2145
rwrist -35.584
rhand -25.8617 10.5483
rfingers 7.12502
rthumb 0.679279 -19.4303
lclavicle -4.01545e-014 -3.18055e-015
lhumerus -11.6787 -13.8314 77.911
lradius 65.0319
lwrist 43.9474
lhand -11.7086 61.5066
lfingers 7.12502
lthumb -165.662 89.0085
rfemur -19.0933 3.53422 18.4958
rtibia 16.6056
rfoot -1.22869 -25.2232
rtoes -5.15934
lfemur -17.8175 -0.521372 -14.9359
ltibia 33.0821
lfoot -13.505 -5.88574
ltoes -27.6714
544
root -11.2449 17.8496 -2.77741 -167.027 -62.146 -183.896
lowerback 6.5243 -0.210195 3.61912
upperback -0.565043 0.0529073 2.21464
thorax -4.2475 -0.0514384 0.25782
lowerneck -26.3299 1.27035 0.159049
upperneck 40.109 -0.387336 1.08752
head 20.2517 -0.476961 0.233126
rclavicle -1.90833e-014 -3.18055e-015
rhumerus -19.6318 19.5416 -69.8789
rradius 77.5847
rwrist -34.595
rhand -26.4397 10.1393
rfingers 7.12502
rthumb 0.121108 -19.8404
lclavicle -1.90833e-014 -3.18055e-015
lhumerus -11.3069 -14.0294 77.867
lradius 64.2325
lwrist 43.7046
lhand -11.5564 60.4868
lfingers 7.12502
lthumb -165.516 -90.0387
rfemur -19.2868 3.0526 18.6897
rtibia 17.4274
rfoot -1.88222 -25.3881
rtoes -5.3585
lfemur -18.5644 -1.00886 -15.0258
ltibia 31.3289
lfoot -13.7796 -6.37853
ltoes -25.1534
545
root -11.2877 17.8401 -2.8465 -166.88 -62.6367 -183.876
lowerback 6.52378 -0.312258 3.71599
upperback -0.576655 -0.0750272 2.21754
thorax -4.26244 -0.117344 0.219688
lowerneck -25.8986 1.36011 0.0155145
upperneck 40.0418 -0.333366 1.41189
head 20.0868 -0.435457 0.432189
rclavicle 1.10325e-013 -1.43125e-014
rhumerus -19.6108 19.0928 -69.9006
rradius 78.0829
rwrist -34.1529
rhand -26.4238 9.25683
rfingers 7.12502
rthumb 0.136403 -20.7229
lclavicle 1.10325e-013 -1.43125e-014
lhumerus -11.0277 -13.9067 77.7563
lradius 64.1332
lwrist 44.2204
lhand -10.5933 60.7893
lfingers 7.12502
lthumb -164.588 89.8053
rfemur -19.4399 2.55247 18.967
rtibia 17.9755
rfoot -2.42049 -25.459
rtoes -5.22707
lfemur -19.3165 -1.79729 -14.9361
ltibia 29.5141
lfoot -14.0064 -6.1537
ltoes -25.4222
546
root -11.3361 17.8309 -2.90826 -166.964 -63.0087 -183.637
lowerback 6.52785 -0.402727 3.87296
upperback -0.577304 -0.183176 2.24516
thorax -4.26867 -0.174907 0.171592
lowerneck -26.0774 1.25289 0.0864026
upperneck 40.2417 -0.549611 1.35951
head 20.2712 -0.519332 0.340341
rclavicle -2.04748e-014 -7.95139e-015
rhumerus -19.642 18.7558 -69.8614
rradius 78.7728
rwrist -34.7151
rhand -26.1178 8.58433
rfingers 7.12502
rthumb 0.43197 -21.395
lclavicle -2.04748e-014 -7.95139e-015
lhumerus -10.956 -13.4892 77.6824
lradius 64.4466
lwrist 44.8091
lhand -9.57006 60.7892
lfingers 7.12502
lthumb -163.602 89.8839
rfemur -19.4387 1.95619 19.3432
rtibia 18.279
rfoot -2.90404 -25.2883
rtoes -4.88551
lfemur -19.9361 -3.09182 -14.6329
ltibia 27.7235
lfoot -14.3059 -4.69782
ltoes -28.6784
547
root -11.3885 17.8277 -2.96437 -167.175 -63.2056 -183.291
lowerback 6.57342 -0.461466 4.0319
upperback -0.611744 -0.245166 2.25238
thorax -4.33283 -0.21073 0.097329
lowerneck -26.0875 1.28833 0.286016
upperneck 40.4395 -0.575095 1.22677
head 20.4048 -0.525389 0.229309
rclavicle -1.82882e-014 1.59028e-015
rhumerus -19.7926 18.7753 -69.9584
rradius 79.0647
rwrist -34.3284
rhand -26.5933 8.55506
rfingers 7.12502
rthumb -0.0272997 -21.4247
lclavicle -1.82882e-014 1.59028e-015
lhumerus -11.0858 -13.1598 77.6434
lradius 64.9515
lwrist 44.7526
lhand -9.40664 60.3231
lfingers 7.12502
lthumb -163.445 269.637
rfemur -19.3427 1.40097 19.7353
rtibia 18.4354
rfoot -3.29033 -24.9594
rtoes -4.90014
lfemur -20.4518 -5.08207 -14.0597
ltibia 26.0381
lfoot -14.5712 -2.66434
ltoes -29.8593
548
root -11.4424 17.8249 -3.01606 -167.471 -63.2614 -182.847
lowerback 6.55074 -0.478412 4.12574
upperback -0.63899 -0.260559 2.26796
thorax -4.34941 -0.221203 0.0627178
lowerneck -25.9184 1.35491 0.37595
upperneck 40.5733 -0.544617 1.20744
head 20.4452 -0.512355 0.207809
rclavicle 5.66536e-014 -3.97569e-015
rhumerus -19.8448 18.8703 -70.0141
rradius 78.8892
rwrist -33.0822
rhand -27.1411 8.53423
rfingers 7.12502
rthumb -0.556365 -21.4448
lclavicle 5.66536e-014 -3.97569e-015
lhumerus -11.3141 -13.0641 77.6482
lradius 65.5796
lwrist 43.9983
lhand -9.81064 60.1983
lfingers 7.12502
lthumb -163.834 269.544
rfemur -19.226 1.12533 20.1101
rtibia 18.5026
rfoot -3.55869 -24.7415
rtoes -5.18767
lfemur -20.9608 -7.40124 -13.2867
ltibia 24.5434
lfoot -14.6644 -0.427455
ltoes -28.2763
549
root -11.4996 17.8173 -3.06408 -167.804 -63.1815 -182.367
lowerback 6.43643 -0.444433 4.11991
upperback -0.660063 -0.221217 2.29823
thorax -4.30549 -0.201118 0.0925346
lowerneck -25.5508 1.47782 0.431116
upperneck 40.6492 -0.438614 1.26079
head 20.3899 -0.467431 0.246831
rclavicle -2.8625e-014 -1.51076e-014
rhumerus -19.8415 19.1889 -69.9887
rradius 78.5028
rwrist -31.7834
rhand -28.318 8.30239
rfingers 7.12502
rthumb -1.69306 -21.6706
lclavicle -2.8625e-014 -1.51076e-014
lhumerus -11.5421 -13.1137 77.7007
lradius 66.2293
lwrist 43.159
lhand -9.81926 60.8275
lfingers 7.12502
lthumb -163.842 89.826
rfemur -19.1254 0.885114 20.4792
rtibia 18.5714
rfoot -3.84119 -24.4118
rtoes -5.48424
lfemur -21.4578 -9.33738 -12.5427
ltibia 23.3058
lfoot -14.0923 1.5501
ltoes -25.2311
550
root -11.5617 17.8057 -3.10777 -168.103 -62.9819 -181.936
lowerback 6.26016 -0.353747 4.05895
upperback -0.698008 -0.113677 2.28977
thorax -4.24209 -0.145655 0.105986
lowerneck -25.4917 1.32549 0.225944
upperneck 40.8072 -0.799392 1.63047
head 20.4865 -0.59265 0.379937
rclavicle 5.98342e-014 2.14687e-014
rhumerus -19.7971 19.2137 -69.7971
rradius 78.3355
rwrist -32.706
rhand -27.8895 8.06198
rfingers 7.12502
rthumb -1.27918 -21.9139
lclavicle 5.98342e-014 2.14687e-014
lhumerus -11.6855 -13.3229 77.7153
lradius 66.7807
lwrist 42.7144
lhand -9.821 61.667
lfingers 7.12502
lthumb -163.844 88.9863
rfemur -19.0603 0.524378 20.8188
rtibia 18.7148
rfoot -4.04085 -23.8332
rtoes -6.67053
lfemur -21.9072 -10.5932 -11.9808
ltibia 22.3703
lfoot -12.8816 2.94315
ltoes -24.6832
551
root -11.6249 17.7883 -3.14638 -168.522 -62.7501 -181.436
lowerback 6.10979 -0.229164 4.00749
upperback -0.722437 0.0404482 2.2615
thorax -4.1781 -0.0672915 0.0896353
lowerneck -25.3549 1.21955 0.0312307
upperneck 41.005 -1.10837 2.00727
head 20.5913 -0.699342 0.527528
rclavicle -3.18055e-015 -4.69132e-014
rhumerus -19.8638 19.2353 -69.5691
rradius 78.3578
rwrist -34.3128
rhand -27.4482 8.07291
rfingers 7.12502
rthumb -0.852961 -21.9051
lclavicle -3.18055e-015 -4.69132e-014
lhumerus -11.7516 -13.757 77.6556
lradius 67.2739
lwrist 42.4232
lhand -10.5235 62.2322
lfingers 7.12502
lthumb -164.521 88.3675
rfemur -18.9415 0.255281 21.1598
rtibia 18.8781
rfoot -4.15237 -23.3084
rtoes -8.52165
lfemur -22.2632 -11.3639 -11.571
ltibia 21.7947
lfoot -10.9704 3.87837
ltoes -26.308
552
root -11.6888 17.7678 -3.17874 -169.347 -62.4815 -180.572
lowerback 6.01527 -0.101499 4.04429
upperback -0.725271 0.207717 2.30782
thorax -4.12306 0.0151919 0.10077
lowerneck -25.2021 1.18085 -0.0410017
upperneck 41.2329 -1.29108 2.19753
head 20.7095 -0.768089 0.589525
rclavicle 7.43455e-014 -4.85035e-014
rhumerus -20.0096 19.5339 -69.3156
rradius 78.3149
rwrist -34.7379
rhand -27.846 7.88283
rfingers 7.12502
rthumb -1.23721 -22.0933
lclavicle 7.43455e-014 -4.85035e-014
lhumerus -11.755 -14.2476 77.598
lradius 67.5979
lwrist 41.8777
lhand -11.1571 62.9823
lfingers 7.12502
lthumb -165.131 87.5713
rfemur -18.6902 0.115659 21.6465
rtibia 18.9514
rfoot -4.41095 -22.9059
rtoes -9.28377
lfemur -22.3672 -11.7211 -11.1861
ltibia 21.6132
lfoot -8.54241 3.32873
ltoes -26.9837
